<svg width="15" height="15" viewBox="0 0 15 15" fill="none" xmlns="http://www.w3.org/2000/svg">
<rect width="15" height="15" rx="7.5" fill="#6A9CFC"/>
<path d="M10.3194 5.22405H8.5463V5.71714H10.3264L10.3194 5.22405ZM9.94516 8.61629C9.81065 8.70541 9.65181 8.75062 9.49053 8.74568C9.38377 8.75681 9.27587 8.74578 9.17357 8.71329C9.07127 8.68079 8.97678 8.62753 8.89602 8.55683C8.74669 8.38753 8.66895 8.16685 8.67919 7.94133H10.9943C11.011 7.70652 10.9909 7.47054 10.9349 7.2419C10.8806 7.02439 10.7857 6.81911 10.6551 6.6369C10.5236 6.46015 10.3539 6.31548 10.1585 6.21374C9.94112 6.10657 9.70138 6.05263 9.45906 6.05637C9.23115 6.0547 9.00522 6.0987 8.7946 6.18576C8.60173 6.26707 8.42697 6.38595 8.28052 6.53548C8.13447 6.68799 8.02138 6.86894 7.94829 7.06705C7.86985 7.28092 7.83075 7.50721 7.83288 7.735C7.82928 7.96603 7.86719 8.19582 7.94479 8.41345C8.0107 8.61053 8.11534 8.79244 8.25254 8.94851C8.39449 9.10174 8.56895 9.22124 8.76312 9.29823C8.97963 9.38072 9.20991 9.42108 9.44157 9.41713C9.7666 9.42727 10.0875 9.34218 10.3648 9.17233C10.6449 8.9733 10.8466 8.68257 10.9349 8.3505H10.162C10.1206 8.46036 10.0445 8.55369 9.94516 8.61629ZM8.74564 7.17546C8.77286 7.08827 8.81804 7.00775 8.87827 6.93908C8.9385 6.87041 9.01245 6.81513 9.09535 6.77678C9.20515 6.72736 9.32471 6.70345 9.44507 6.70684C9.53201 6.69941 9.61954 6.71088 9.70163 6.74046C9.78373 6.77004 9.85845 6.81703 9.92068 6.8782C10.0395 7.02366 10.1158 7.19916 10.141 7.38529H8.68968C8.69534 7.31422 8.70823 7.24391 8.72815 7.17546H8.74564ZM6.89564 7.00759C7.07363 6.93348 7.2283 6.81265 7.34328 6.65788C7.44897 6.49351 7.50148 6.30059 7.49366 6.10533C7.50051 5.92727 7.46579 5.75006 7.39224 5.58775C7.33045 5.44714 7.23126 5.32617 7.10547 5.23803C6.97211 5.1464 6.82067 5.08439 6.66133 5.05618C6.47277 5.01663 6.28045 4.99787 6.0878 5.00023H4V9.39965H6.13326C6.32795 9.39979 6.52185 9.37511 6.71029 9.32621C6.88891 9.28 7.05813 9.20308 7.21039 9.09889C7.35788 8.99668 7.47797 8.85977 7.5601 8.70022C7.651 8.52179 7.6955 8.32334 7.6895 8.12319C7.69612 7.87515 7.62655 7.63104 7.49016 7.42376C7.34348 7.2153 7.12594 7.06737 6.87816 7.00759H6.89564ZM4.96871 5.75212H5.87447C5.95769 5.75201 6.04076 5.75903 6.12277 5.7731C6.19829 5.78429 6.27082 5.81045 6.3361 5.85004C6.39917 5.88571 6.45027 5.93925 6.48298 6.00391C6.52348 6.08145 6.54279 6.16831 6.53893 6.25571C6.54545 6.33098 6.53394 6.40672 6.50536 6.47666C6.47677 6.5466 6.43194 6.60872 6.37457 6.65788C6.24941 6.74392 6.09965 6.78688 5.94791 6.78028H4.96871V5.75212ZM6.66133 8.354C6.6254 8.42527 6.57107 8.48564 6.50396 8.52886C6.43413 8.57229 6.35718 8.60307 6.27665 8.61978C6.18714 8.63982 6.09558 8.64921 6.00387 8.64776H4.95472V7.44124H6.00387C6.18391 7.43336 6.3617 7.48363 6.51096 7.58463C6.57839 7.64514 6.63062 7.72068 6.66343 7.80513C6.69624 7.88958 6.7087 7.98057 6.6998 8.07073C6.70926 8.16686 6.69608 8.26387 6.66133 8.354Z" fill="white"/>
</svg>
