<svg width="15" height="15" viewBox="0 0 15 15" fill="none" xmlns="http://www.w3.org/2000/svg">
<rect width="15" height="15" rx="7.5" fill="#6A9CFC"/>
<path d="M5.43084 4.125C5.33328 4.12493 5.23665 4.14408 5.14649 4.18135C5.05632 4.21863 4.97438 4.27331 4.90535 4.34226C4.83632 4.41121 4.78156 4.49308 4.74418 4.58321C4.7068 4.67333 4.68754 4.76993 4.6875 4.8675C4.6875 5.27813 5.02022 5.61844 5.43 5.61844C5.84034 5.61844 6.17334 5.27813 6.17334 4.86806C6.17342 4.77051 6.15427 4.6739 6.11699 4.58375C6.0797 4.4936 6.02502 4.41168 5.95607 4.34267C5.88711 4.27367 5.80524 4.21892 5.71512 4.18157C5.625 4.14422 5.5284 4.125 5.43084 4.125ZM9.05672 6.09375C8.43262 6.09375 8.07572 6.42 7.90416 6.74456H7.88616V6.18122H6.65625V10.3125H7.93791V8.26753C7.93791 7.72866 7.97841 7.20778 8.64525 7.20778C9.30253 7.20778 9.31209 7.82231 9.31209 8.30156V10.3125H10.5938V8.04338C10.5938 6.933 10.355 6.09375 9.05672 6.09375ZM4.78959 6.18094V10.3125H6.07209V6.18094H4.78959Z" fill="white"/>
</svg>
