<svg width="15" height="15" viewBox="0 0 15 15" fill="none" xmlns="http://www.w3.org/2000/svg">
<rect width="15" height="15" rx="7.5" fill="#6A9CFC"/>
<path d="M7.5 4C6.11786 4 5 5.11786 5 6.5C5 8.375 7.5 11.1429 7.5 11.1429C7.5 11.1429 10 8.375 10 6.5C10 5.11786 8.88214 4 7.5 4ZM7.5 7.39286C7.2632 7.39286 7.0361 7.29879 6.86865 7.13135C6.70121 6.9639 6.60714 6.7368 6.60714 6.5C6.60714 6.2632 6.70121 6.0361 6.86865 5.86865C7.0361 5.70121 7.2632 5.60714 7.5 5.60714C7.7368 5.60714 7.9639 5.70121 8.13135 5.86865C8.29879 6.0361 8.39286 6.2632 8.39286 6.5C8.39286 6.7368 8.29879 6.9639 8.13135 7.13135C7.9639 7.29879 7.7368 7.39286 7.5 7.39286Z" fill="white"/>
</svg>
