<svg width="15" height="15" viewBox="0 0 15 15" fill="none" xmlns="http://www.w3.org/2000/svg">
<rect width="15" height="15" rx="7.5" fill="#6A9CFC"/>
<path d="M5.16671 9.83337C5.00629 9.83337 4.86892 9.7762 4.75458 9.66187C4.64025 9.54754 4.58318 9.41026 4.58337 9.25004V5.75004C4.58337 5.58962 4.64054 5.45224 4.75487 5.33791C4.86921 5.22358 5.00649 5.16651 5.16671 5.1667H9.83337C9.99379 5.1667 10.1312 5.22387 10.2455 5.3382C10.3598 5.45254 10.4169 5.58981 10.4167 5.75004V9.25004C10.4167 9.41045 10.3595 9.54783 10.2452 9.66216C10.1309 9.77649 9.9936 9.83356 9.83337 9.83337H5.16671ZM7.50004 7.7917L9.83337 6.33337V5.75004L7.50004 7.20837L5.16671 5.75004V6.33337L7.50004 7.7917Z" fill="white"/>
</svg>
