<svg width="11" height="12" viewBox="0 0 11 12" fill="none" xmlns="http://www.w3.org/2000/svg">
<path d="M9.28125 2.90625H7.5625V2.5625C7.5625 2.289 7.45385 2.02669 7.26045 1.8333C7.06706 1.6399 6.80475 1.53125 6.53125 1.53125H4.46875C4.19525 1.53125 3.93294 1.6399 3.73955 1.8333C3.54615 2.02669 3.4375 2.289 3.4375 2.5625V2.90625H1.71875C1.53641 2.90625 1.36155 2.97868 1.23261 3.10761C1.10368 3.23655 1.03125 3.41141 1.03125 3.59375V9.09375C1.03125 9.27609 1.10368 9.45095 1.23261 9.57989C1.36155 9.70882 1.53641 9.78125 1.71875 9.78125H9.28125C9.46359 9.78125 9.63845 9.70882 9.76739 9.57989C9.89632 9.45095 9.96875 9.27609 9.96875 9.09375V3.59375C9.96875 3.41141 9.89632 3.23655 9.76739 3.10761C9.63845 2.97868 9.46359 2.90625 9.28125 2.90625ZM4.125 2.5625C4.125 2.47133 4.16122 2.3839 4.22568 2.31943C4.29015 2.25497 4.37758 2.21875 4.46875 2.21875H6.53125C6.62242 2.21875 6.70985 2.25497 6.77432 2.31943C6.83878 2.3839 6.875 2.47133 6.875 2.5625V2.90625H4.125V2.5625ZM6.875 3.59375V9.09375H4.125V3.59375H6.875ZM1.71875 3.59375H3.4375V9.09375H1.71875V3.59375ZM9.28125 9.09375H7.5625V3.59375H9.28125V9.09375Z" fill="#737373"/>
</svg>
