<svg width="15" height="15" viewBox="0 0 15 15" fill="none" xmlns="http://www.w3.org/2000/svg">
<rect width="15" height="15" rx="7.5" fill="#6A9CFC"/>
<g clip-path="url(#clip0_111_69)">
<path d="M5.93083 7.14708C6.35083 7.9725 7.0275 8.64625 7.85292 9.06917L8.49458 8.4275C8.57333 8.34875 8.69 8.3225 8.79208 8.3575C9.11875 8.46542 9.47167 8.52375 9.83333 8.52375C9.99375 8.52375 10.125 8.655 10.125 8.81542V9.83333C10.125 9.99375 9.99375 10.125 9.83333 10.125C7.09458 10.125 4.875 7.90542 4.875 5.16667C4.875 5.00625 5.00625 4.875 5.16667 4.875H6.1875C6.34792 4.875 6.47917 5.00625 6.47917 5.16667C6.47917 5.53125 6.5375 5.88125 6.64542 6.20792C6.6775 6.31 6.65417 6.42375 6.5725 6.50542L5.93083 7.14708Z" fill="white"/>
</g>
<defs>
<clipPath id="clip0_111_69">
<rect width="7" height="7" fill="white" transform="translate(4 4)"/>
</clipPath>
</defs>
</svg>
